<?xml version="1.0" encoding="UTF-8"?>
<svg id="Calque_2" data-name="Calque 2" xmlns="http://www.w3.org/2000/svg" viewBox="0 0 240.6 223.36">
  <defs>
    <style>
      .cls-1 {
        fill: #25519b;
        fill-rule: evenodd;
      }
    </style>
  </defs>
  <g id="Calque_1-2" data-name="Calque 1">
    <path class="cls-1" d="M120.3,0c4.74,0,8.59,3.85,8.59,8.59v8.66c35.22.53,70.32,4.36,104.83,11.45,4.65.94,7.65,5.48,6.71,10.13-.82,4.02-4.35,6.9-8.45,6.88h-21.97l28.34,115.96c.93,3.81-.83,7.77-4.3,9.62-11.21,6-23.72,9.12-36.44,9.11-12.71.02-25.23-3.11-36.44-9.11-3.46-1.85-5.23-5.81-4.3-9.62l28.34-115.96h-56.33v152.11c14.81.87,29.02,3.93,42.35,8.89,4.45,1.65,6.71,6.6,5.06,11.05-1.25,3.37-4.47,5.6-8.06,5.6h-95.87c-4.74,0-8.59-3.84-8.6-8.58,0-3.59,2.23-6.81,5.6-8.06,13.31-4.96,27.54-8.02,42.35-8.88V45.7h-56.33l28.34,115.96c.93,3.81-.83,7.77-4.3,9.62-11.21,6-23.72,9.13-36.44,9.12-12.71.02-25.23-3.11-36.44-9.11-3.46-1.85-5.23-5.81-4.3-9.62L30.59,45.71H8.62C3.88,45.73.02,41.9,0,37.15c-.02-4.1,2.87-7.64,6.88-8.45,34.51-7.09,69.6-10.93,104.83-11.45v-8.66c0-4.74,3.85-8.59,8.59-8.59ZM176.17,155.12l21.44-87.76,21.44,87.76s-42.88,0-42.88,0ZM64.43,155.12l-21.44-87.76-21.44,87.76s42.88,0,42.88,0Z"/>
  </g>
</svg>