<?xml version="1.0" encoding="UTF-8"?>
<svg id="Calque_2" data-name="Calque 2" xmlns="http://www.w3.org/2000/svg" viewBox="0 0 229.99 221.15">
  <defs>
    <style>
      .cls-1 {
        fill: #25519b;
        fill-rule: evenodd;
      }
    </style>
  </defs>
  <g id="Calque_1-2" data-name="Calque 1">
    <path class="cls-1" d="M30.12,219.9c4.66.84,9.38,1.26,14.11,1.25,14.95.02,29.6-4.19,42.26-12.14,9.13,2.15,18.68,3.29,28.51,3.29,62.77,0,115-46.82,115-106.15S177.77,0,115,0,0,46.82,0,106.15c0,28.41,12.09,54.1,31.54,73.03,2.74,2.67,3.27,5.05,3,6.4-1.46,7.34-4.76,14.18-9.6,19.89-3.16,3.73-2.7,9.31,1.03,12.47,1.19,1.01,2.62,1.68,4.16,1.96ZM70.77,92.88c-7.33,0-13.27,5.94-13.27,13.27s5.94,13.27,13.27,13.27,13.27-5.94,13.27-13.27-5.94-13.27-13.27-13.27ZM101.73,106.15c0-7.33,5.94-13.27,13.27-13.27s13.27,5.94,13.27,13.27-5.94,13.27-13.27,13.27-13.27-5.94-13.27-13.27h0ZM159.23,92.88c-7.33,0-13.27,5.94-13.27,13.27s5.94,13.27,13.27,13.27,13.27-5.94,13.27-13.27-5.94-13.27-13.27-13.27Z"/>
  </g>
</svg>