<?xml version="1.0" encoding="UTF-8"?>
<svg id="Calque_2" data-name="Calque 2" xmlns="http://www.w3.org/2000/svg" viewBox="0 0 223.31 175.46">
  <defs>
    <style>
      .cls-1 {
        fill-rule: evenodd;
      }

      .cls-1, .cls-2 {
        fill: #25519b;
      }
    </style>
  </defs>
  <g id="Calque_1-2" data-name="Calque 1">
    <path class="cls-2" d="M31.9,0C14.28,0,0,14.28,0,31.9v7.98h223.31v-7.98c0-17.62-14.28-31.9-31.9-31.9H31.9Z"/>
    <path class="cls-1" d="M223.31,63.8H0v79.76c0,17.62,14.28,31.9,31.9,31.9h159.51c17.62,0,31.9-14.28,31.9-31.9V63.8ZM31.9,103.68c0-4.4,3.57-7.98,7.98-7.98h63.8c4.4,0,7.98,3.57,7.98,7.98s-3.57,7.98-7.98,7.98h-63.8c-4.4,0-7.98-3.57-7.98-7.98ZM39.88,127.61c-4.4,0-7.98,3.57-7.98,7.98s3.57,7.98,7.98,7.98h31.9c4.4,0,7.98-3.57,7.98-7.98s-3.57-7.98-7.98-7.98h-31.9Z"/>
  </g>
</svg>