<?xml version="1.0" encoding="UTF-8"?>
<svg id="Calque_2" data-name="Calque 2" xmlns="http://www.w3.org/2000/svg" viewBox="0 0 226.86 226.86">
  <defs>
    <style>
      .cls-1 {
        fill: #fff;
      }
    </style>
  </defs>
  <g id="Calque_1-2" data-name="Calque 1">
    <path class="cls-1" d="M226.08,66.69c-.39-11.93-2.54-20.34-5.28-27.58-2.93-7.63-6.65-13.89-13.1-19.95-6.45-6.45-12.71-10.17-19.95-13.1s-15.45-4.89-27.58-5.28c-12.13-.78-15.84-.78-46.74-.78s-34.81,0-46.74.78c-11.93.39-20.34,2.54-27.58,5.28-7.63,2.93-13.89,6.65-19.95,13.1-6.45,6.45-10.17,12.71-13.1,19.95-2.93,7.24-4.89,15.45-5.28,27.58-.39,12.13-.78,15.84-.78,46.74s0,34.81.78,46.74c.39,11.93,2.54,20.34,5.28,27.58,2.93,7.63,6.65,13.89,13.1,19.95,6.45,6.45,12.71,10.17,19.95,13.1,7.24,2.93,15.45,4.89,27.58,5.28,12.13.39,15.84.78,46.74.78s34.81,0,46.74-.78c11.93-.39,20.34-2.54,27.58-5.28,7.63-2.93,13.89-6.65,19.95-13.1,6.45-6.45,10.17-12.71,13.1-19.95,2.93-7.24,4.89-15.45,5.28-27.58.39-12.13.78-15.84.78-46.74s0-34.81-.78-46.74ZM135.6,105.54c-10.04,0-11.76,5.39-13.72,10.04-.49,2.2-.98,4.16-.98,6.86v49.24h-26.46v-58.8c0-10.53-.49-19.35-.49-26.95h23.27l1.47,12.25h.49c3.18-5.88,12.25-13.72,26.46-13.72s30.62,11.76,30.62,36.5l-.73,49.98h-26.22v-47.04c0-11.02-3.67-18.37-13.72-18.37ZM65.54,75.66c-8.33,0-13.72-5.88-13.72-13.72s5.88-13.72,13.72-13.72,13.72,5.88,13.72,13.72c.49,7.35-4.9,13.72-13.72,13.72ZM78.76,84.97v85.99h-26.46v-85.99h26.46Z"/>
  </g>
</svg>