<?xml version="1.0" encoding="UTF-8"?>
<svg id="Calque_2" xmlns="http://www.w3.org/2000/svg" version="1.1" viewBox="0 0 148.8 116.9">
  <!-- Generator: Adobe Illustrator 30.1.0, SVG Export Plug-In . SVG Version: 2.1.1 Build 65)  -->
  <defs>
    <style>
      .st0 {
        fill: #fff;
      }
    </style>
  </defs>
  <g id="Calque_1-2">
    <g>
      <path class="st0" d="M32.5,58.6c0,2.7.4,5.1,1.3,7.2.8,2.1,2,3.9,3.5,5.4s3.2,2.6,5.2,3.4,4.2,1.2,6.6,1.2,2.8-.3,4.1-.8,2.5-1.2,3.7-2c1.1-.8,2.1-1.8,3-2.8.9-1.1,1.6-2.1,2.2-3.2l2.9,1.7c-.8,1.3-1.8,2.5-2.9,3.7-1.1,1.2-2.4,2.2-3.9,3.2-1.5.9-3.2,1.7-5,2.2s-4,.8-6.2.8c-3.3,0-6.3-.5-9.1-1.6s-5-2.5-7-4.3-3.4-3.9-4.5-6.4c-1.1-2.4-1.6-5-1.6-7.7s.2-3.5.7-5.3c.5-1.7,1.2-3.3,2.1-4.8.9-1.5,2-2.9,3.4-4.1,1.3-1.2,2.8-2.3,4.5-3.2,1.7-.9,3.5-1.6,5.5-2.1,2-.5,4.1-.7,6.3-.7s4.1.3,5.9.8c1.8.5,3.5,1.3,4.9,2.2,1.5.9,2.8,2,4,3.1,1.2,1.2,2.1,2.4,3,3.7l-2.9,1.8c-1.7-3.1-3.5-5.4-5.6-6.8s-4.5-2.2-7.2-2.2-4.5.4-6.5,1.2c-2,.8-3.8,2-5.3,3.5s-2.7,3.3-3.5,5.5c-.9,2.2-1.3,4.6-1.3,7.3h0Z"/>
      <path class="st0" d="M98.4,39.2v2.5h-21.2v13.7h14.2v2.5h-14.2v17.2h21.2v2.5h-27.9v-38.4h27.9Z"/>
      <path class="st0" d="M103.8,39.2h6.9l15.6,29.5h.3l15.3-29.5h6.8v38.4h-6.8v-31.5h-.2l-16.5,31.5h-1.4l-16.7-31.2h-.4v31.2h-3s0-38.4,0-38.4Z"/>
    </g>
    <path class="st0" d="M12.1,58.4C12.1,22.8,36.3,4,64.9.4,62.6.2,60.2,0,57.9,0,25.9,0,0,26.2,0,58.4s25.9,58.4,57.9,58.4,4.7-.2,7-.4c-28.6-3.5-52.8-22.3-52.8-58h0Z"/>
  </g>
</svg>