<?xml version="1.0" encoding="UTF-8"?>
<svg id="Calque_2" data-name="Calque 2" xmlns="http://www.w3.org/2000/svg" viewBox="0 0 148.8 116.88">
  <defs>
    <style>
      .cls-1 {
        fill: #04529e;
      }

      .cls-2 {
        fill: #a7a8aa;
      }
    </style>
  </defs>
  <g id="Calque_1-2" data-name="Calque 1">
    <g>
      <path class="cls-1" d="M32.54,58.57c0,2.68.42,5.09,1.27,7.23.85,2.13,2.01,3.94,3.5,5.42s3.23,2.61,5.25,3.39c2.02.78,4.21,1.17,6.57,1.17,1.41,0,2.78-.26,4.09-.78,1.31-.52,2.53-1.2,3.65-2.04,1.12-.84,2.12-1.79,3.01-2.84.89-1.05,1.61-2.12,2.18-3.2l2.85,1.74c-.83,1.29-1.81,2.53-2.94,3.72-1.13,1.19-2.44,2.24-3.92,3.16-1.48.92-3.16,1.65-5.03,2.19-1.87.54-3.95.81-6.25.81-3.33,0-6.35-.53-9.07-1.59-2.72-1.06-5.04-2.5-6.98-4.32s-3.44-3.93-4.5-6.36c-1.06-2.42-1.59-4.99-1.59-7.69,0-1.8.24-3.55.73-5.26.48-1.71,1.19-3.31,2.1-4.81.92-1.5,2.04-2.87,3.36-4.11,1.32-1.25,2.82-2.32,4.48-3.21,1.66-.9,3.49-1.59,5.47-2.09,1.98-.49,4.09-.74,6.33-.74s4.11.28,5.92.83c1.81.55,3.45,1.28,4.94,2.19,1.48.91,2.81,1.96,3.97,3.14,1.16,1.19,2.15,2.43,2.98,3.72l-2.94,1.85c-1.68-3.11-3.55-5.38-5.63-6.82-2.08-1.44-4.47-2.16-7.18-2.16-2.32,0-4.49.41-6.51,1.22-2.02.81-3.78,1.97-5.28,3.48-1.5,1.51-2.68,3.34-3.54,5.49-.86,2.15-1.29,4.58-1.29,7.28Z"/>
      <path class="cls-1" d="M98.42,39.22v2.49h-21.17v13.73h14.17v2.49h-14.17v17.2h21.17v2.49h-27.92v-38.41h27.92Z"/>
      <path class="cls-1" d="M103.83,39.22h6.9l15.62,29.46h.33l15.32-29.46h6.78v38.41h-6.78v-31.48h-.21l-16.47,31.48h-1.39l-16.65-31.22h-.45v31.22h-3v-38.41Z"/>
    </g>
    <path class="cls-2" d="M12.06,58.44C12.06,22.8,36.26,3.95,64.9.44c-2.31-.28-4.65-.44-7.03-.44C25.91,0,0,26.17,0,58.44s25.91,58.44,57.87,58.44c2.38,0,4.73-.16,7.03-.44-28.64-3.51-52.85-22.33-52.85-58Z"/>
  </g>
</svg>